<?xml version="1.0" encoding="UTF-8"?>
<svg xmlns="http://www.w3.org/2000/svg" width="600" height="400">
<rect width="100%" height="100%" fill="white"/>
<text x="300" y="25" text-anchor="middle" font-size="16" font-weight="bold">Sales Trend</text>
<line x1="50" y1="50" x2="50" y2="350" stroke="black"/>
<line x1="50" y1="350" x2="550" y2="350" stroke="black"/>
<path d="M50,350 L105,221 L161,307 L216,178 L272,247 L327,135 L383,195 L438,92 L494,161 L550,50" fill="none" stroke="steelblue" stroke-width="2"/>
<circle cx="50" cy="350" r="4" fill="steelblue"/>
<circle cx="105" cy="221" r="4" fill="steelblue"/>
<circle cx="161" cy="307" r="4" fill="steelblue"/>
<circle cx="216" cy="178" r="4" fill="steelblue"/>
<circle cx="272" cy="247" r="4" fill="steelblue"/>
<circle cx="327" cy="135" r="4" fill="steelblue"/>
<circle cx="383" cy="195" r="4" fill="steelblue"/>
<circle cx="438" cy="92" r="4" fill="steelblue"/>
<circle cx="494" cy="161" r="4" fill="steelblue"/>
<circle cx="550" cy="50" r="4" fill="steelblue"/>
<text x="45" y="55" text-anchor="end" font-size="12">45</text>
<text x="45" y="355" text-anchor="end" font-size="12">10</text>
</svg>