<?xml version="1.0" encoding="UTF-8"?>
<svg xmlns="http://www.w3.org/2000/svg" width="700" height="450" viewBox="0 0 700 450">
<defs><style>
.title { font: bold 18px -apple-system, BlinkMacSystemFont, sans-serif; fill: #eaeaea; }
.subtitle { font: 13px sans-serif; fill: #888888; }
.axis { font: 11px sans-serif; fill: #888888; }
.label { font: 12px sans-serif; fill: #eaeaea; }
.grid { stroke: #333355; stroke-width: 1; stroke-dasharray: 3,3; }
</style><linearGradient id="grad0" x1="0%" y1="0%" x2="0%" y2="100%"><stop offset="0%" style="stop-color:#61afef;stop-opacity:1"/><stop offset="100%" style="stop-color:#61afef;stop-opacity:0.7"/></linearGradient><linearGradient id="grad1" x1="0%" y1="0%" x2="0%" y2="100%"><stop offset="0%" style="stop-color:#e06c75;stop-opacity:1"/><stop offset="100%" style="stop-color:#e06c75;stop-opacity:0.7"/></linearGradient><linearGradient id="grad2" x1="0%" y1="0%" x2="0%" y2="100%"><stop offset="0%" style="stop-color:#98c379;stop-opacity:1"/><stop offset="100%" style="stop-color:#98c379;stop-opacity:0.7"/></linearGradient><linearGradient id="grad3" x1="0%" y1="0%" x2="0%" y2="100%"><stop offset="0%" style="stop-color:#e5c07b;stop-opacity:1"/><stop offset="100%" style="stop-color:#e5c07b;stop-opacity:0.7"/></linearGradient><linearGradient id="grad4" x1="0%" y1="0%" x2="0%" y2="100%"><stop offset="0%" style="stop-color:#c678dd;stop-opacity:1"/><stop offset="100%" style="stop-color:#c678dd;stop-opacity:0.7"/></linearGradient><linearGradient id="grad5" x1="0%" y1="0%" x2="0%" y2="100%"><stop offset="0%" style="stop-color:#56b6c2;stop-opacity:1"/><stop offset="100%" style="stop-color:#56b6c2;stop-opacity:0.7"/></linearGradient><linearGradient id="grad6" x1="0%" y1="0%" x2="0%" y2="100%"><stop offset="0%" style="stop-color:#be5046;stop-opacity:1"/><stop offset="100%" style="stop-color:#be5046;stop-opacity:0.7"/></linearGradient><linearGradient id="grad7" x1="0%" y1="0%" x2="0%" y2="100%"><stop offset="0%" style="stop-color:#d19a66;stop-opacity:1"/><stop offset="100%" style="stop-color:#d19a66;stop-opacity:0.7"/></linearGradient></defs>
<rect width="100%" height="100%" fill="#1a1a2e"/>
<text x="350" y="28" text-anchor="middle" class="title">Dark Theme</text>
<text x="350" y="48" text-anchor="middle" class="subtitle">2024 Data</text>
<line x1="70" y1="289" x2="660" y2="289" class="grid"/>
<text x="60" y="293" text-anchor="end" class="axis">150</text>
<line x1="70" y1="197" x2="660" y2="197" class="grid"/>
<text x="60" y="201" text-anchor="end" class="axis">200</text>
<line x1="70" y1="104" x2="660" y2="104" class="grid"/>
<text x="60" y="108" text-anchor="end" class="axis">250</text>
<line x1="70" y1="60" x2="70" y2="370" stroke="#888888"/>
<line x1="70" y1="370" x2="660" y2="370" stroke="#888888"/>
<text x="70" y="390" text-anchor="middle" class="axis">Jan</text>
<text x="124" y="390" text-anchor="middle" class="axis">Feb</text>
<text x="177" y="390" text-anchor="middle" class="axis">Mar</text>
<text x="231" y="390" text-anchor="middle" class="axis">Apr</text>
<text x="285" y="390" text-anchor="middle" class="axis">May</text>
<text x="338" y="390" text-anchor="middle" class="axis">Jun</text>
<text x="392" y="390" text-anchor="middle" class="axis">Jul</text>
<text x="445" y="390" text-anchor="middle" class="axis">Aug</text>
<text x="499" y="390" text-anchor="middle" class="axis">Sep</text>
<text x="553" y="390" text-anchor="middle" class="axis">Oct</text>
<text x="606" y="390" text-anchor="middle" class="axis">Nov</text>
<text x="660" y="390" text-anchor="middle" class="axis">Dec</text>
<text x="350" y="435" text-anchor="middle" class="label">Month</text>
<text x="15" y="225" text-anchor="middle" class="label" transform="rotate(-90 15 225)">Sales (units)</text>
<path d="M70,370 L70,344 L124,298 L177,322 L231,237 L285,261 L338,200 L392,178 L445,206 L499,150 L553,123 L606,132 L660,86 L660,370 Z" fill="#61afef" fill-opacity="0.15"/>
<path d="M70,344 L124,298 L177,322 L231,237 L285,261 L338,200 L392,178 L445,206 L499,150 L553,123 L606,132 L660,86" fill="none" stroke="#61afef" stroke-width="2.5" stroke-linejoin="round"/>
<circle cx="70" cy="344" r="4" fill="#1a1a2e" stroke="#61afef" stroke-width="2"/>
<circle cx="124" cy="298" r="4" fill="#1a1a2e" stroke="#61afef" stroke-width="2"/>
<circle cx="177" cy="322" r="4" fill="#1a1a2e" stroke="#61afef" stroke-width="2"/>
<circle cx="231" cy="237" r="4" fill="#1a1a2e" stroke="#61afef" stroke-width="2"/>
<circle cx="285" cy="261" r="4" fill="#1a1a2e" stroke="#61afef" stroke-width="2"/>
<circle cx="338" cy="200" r="4" fill="#1a1a2e" stroke="#61afef" stroke-width="2"/>
<circle cx="392" cy="178" r="4" fill="#1a1a2e" stroke="#61afef" stroke-width="2"/>
<circle cx="445" cy="206" r="4" fill="#1a1a2e" stroke="#61afef" stroke-width="2"/>
<circle cx="499" cy="150" r="4" fill="#1a1a2e" stroke="#61afef" stroke-width="2"/>
<circle cx="553" cy="123" r="4" fill="#1a1a2e" stroke="#61afef" stroke-width="2"/>
<circle cx="606" cy="132" r="4" fill="#1a1a2e" stroke="#61afef" stroke-width="2"/>
<circle cx="660" cy="86" r="4" fill="#1a1a2e" stroke="#61afef" stroke-width="2"/>
</svg>