<?xml version="1.0" encoding="UTF-8"?>
<svg xmlns="http://www.w3.org/2000/svg" width="700" height="450" viewBox="0 0 700 450">
<defs><style>
.title { font: bold 18px -apple-system, BlinkMacSystemFont, sans-serif; fill: #333333; }
.subtitle { font: 13px sans-serif; fill: #333333; }
.axis { font: 11px sans-serif; fill: #333333; }
.label { font: 12px sans-serif; fill: #333333; }
.grid { stroke: #e0e0e0; stroke-width: 1; stroke-dasharray: 3,3; }
</style><linearGradient id="grad0" x1="0%" y1="0%" x2="0%" y2="100%"><stop offset="0%" style="stop-color:#4285f4;stop-opacity:1"/><stop offset="100%" style="stop-color:#4285f4;stop-opacity:0.7"/></linearGradient><linearGradient id="grad1" x1="0%" y1="0%" x2="0%" y2="100%"><stop offset="0%" style="stop-color:#ea4335;stop-opacity:1"/><stop offset="100%" style="stop-color:#ea4335;stop-opacity:0.7"/></linearGradient><linearGradient id="grad2" x1="0%" y1="0%" x2="0%" y2="100%"><stop offset="0%" style="stop-color:#fbbc04;stop-opacity:1"/><stop offset="100%" style="stop-color:#fbbc04;stop-opacity:0.7"/></linearGradient><linearGradient id="grad3" x1="0%" y1="0%" x2="0%" y2="100%"><stop offset="0%" style="stop-color:#34a853;stop-opacity:1"/><stop offset="100%" style="stop-color:#34a853;stop-opacity:0.7"/></linearGradient><linearGradient id="grad4" x1="0%" y1="0%" x2="0%" y2="100%"><stop offset="0%" style="stop-color:#ff6d01;stop-opacity:1"/><stop offset="100%" style="stop-color:#ff6d01;stop-opacity:0.7"/></linearGradient><linearGradient id="grad5" x1="0%" y1="0%" x2="0%" y2="100%"><stop offset="0%" style="stop-color:#46bdc6;stop-opacity:1"/><stop offset="100%" style="stop-color:#46bdc6;stop-opacity:0.7"/></linearGradient><linearGradient id="grad6" x1="0%" y1="0%" x2="0%" y2="100%"><stop offset="0%" style="stop-color:#7baaf7;stop-opacity:1"/><stop offset="100%" style="stop-color:#7baaf7;stop-opacity:0.7"/></linearGradient><linearGradient id="grad7" x1="0%" y1="0%" x2="0%" y2="100%"><stop offset="0%" style="stop-color:#f07b72;stop-opacity:1"/><stop offset="100%" style="stop-color:#f07b72;stop-opacity:0.7"/></linearGradient></defs>
<rect width="100%" height="100%" fill="#ffffff"/>
<text x="350" y="30" text-anchor="middle" class="title">Market Share</text>
<rect x="80" y="80" width="105" height="30" fill="#4285f4" rx="3"/>
<text x="195" y="100" class="label">Acme (35.0%)</text>
<rect x="80" y="120" width="75" height="30" fill="#ea4335" rx="3"/>
<text x="165" y="140" class="label">Beta (25.0%)</text>
<rect x="80" y="160" width="60" height="30" fill="#fbbc04" rx="3"/>
<text x="150" y="180" class="label">Gamma (20.0%)</text>
<rect x="80" y="200" width="36" height="30" fill="#34a853" rx="3"/>
<text x="126" y="220" class="label">Delta (12.0%)</text>
<rect x="80" y="240" width="24" height="30" fill="#ff6d01" rx="3"/>
<text x="114" y="260" class="label">Other (8.0%)</text>
<text x="80" y="300" class="title">Total: 100.0</text>
</svg>