<?xml version="1.0" encoding="UTF-8"?>
<svg xmlns="http://www.w3.org/2000/svg" width="500" height="400">
<rect width="100%" height="100%" fill="white"/>
<text x="250" y="25" text-anchor="middle" font-size="16" font-weight="bold">Market Share</text>
<path d="M200,200 L350,200 A150,150 0 0,1 78,288 Z" fill="steelblue" stroke="white" stroke-width="2"/>
<path d="M200,200 L78,288 A150,150 0 0,1 153,57 Z" fill="coral" stroke="white" stroke-width="2"/>
<path d="M200,200 L153,57 A150,150 0 0,1 321,111 Z" fill="mediumseagreen" stroke="white" stroke-width="2"/>
<path d="M200,200 L321,111 A150,150 0 0,1 349,199 Z" fill="mediumpurple" stroke="white" stroke-width="2"/>
<rect x="380" y="50" width="15" height="15" fill="steelblue"/>
<text x="400" y="62" font-size="12">A (40%)</text>
<rect x="380" y="75" width="15" height="15" fill="coral"/>
<text x="400" y="87" font-size="12">B (30%)</text>
<rect x="380" y="100" width="15" height="15" fill="mediumseagreen"/>
<text x="400" y="112" font-size="12">C (20%)</text>
<rect x="380" y="125" width="15" height="15" fill="mediumpurple"/>
<text x="400" y="137" font-size="12">D (10%)</text>
</svg>